<?xml version="1.0" encoding="utf-8"?>
<!-- Generator: Adobe Illustrator 28.0.0, SVG Export Plug-In . SVG Version: 6.00 Build 0)  -->
<svg version="1.1" id="Layer_1" xmlns="http://www.w3.org/2000/svg" xmlns:xlink="http://www.w3.org/1999/xlink" x="0px" y="0px"
	 viewBox="68 135 225 78" xml:space="preserve">
<style type="text/css">
	@import url('https://fonts.googleapis.com/css2?family=Poppins:wght@500;600&amp;display=swap');
	.st0{fill:url(#SVGID_1_);}
	.st1{fill:#143054;}
	.st2{fill:#3973B0;}
	.st3{fill:#FFFFFF;}
	.st4{fill:url(#SVGID_00000074429136823502246940000001151450270982807717_);}
	.st5{font-family:'Poppins',sans-serif;font-weight:500;}
	.st6{font-size:8.1581px;}
	.st7{letter-spacing:1;}
	.st8{font-family:'Poppins',sans-serif;font-weight:600;}
	.st9{font-size:24.1605px;}
	.st10{fill:url(#SVGID_00000125598668740977062000000016530615992510161341_);}
	.st11{fill:url(#SVGID_00000094594965975478100210000009743102628978355903_);}
	.st12{fill:url(#SVGID_00000033344634859090886840000014910778291743229872_);}
	.st13{fill:url(#SVGID_00000096772766893684752280000005002112810463367310_);}
	.st14{fill:url(#SVGID_00000011717098978859916100000008257377139409402789_);}
	.st15{fill:url(#SVGID_00000160151690441859938750000007202115171556538782_);}
	.st16{fill:url(#SVGID_00000161621150633655083080000010612881423978782871_);}
</style>
<g>
	<g>
		<linearGradient id="SVGID_1_" gradientUnits="userSpaceOnUse" x1="79.4807" y1="180" x2="138.6764" y2="180">
			<stop  offset="0.0168" style="stop-color:#143054"/>
			<stop  offset="1" style="stop-color:#3973B0"/>
		</linearGradient>
		<path class="st0" d="M136.43,193.91v-27.5c1.27-0.2,2.25-1.3,2.25-2.63c0-1.48-1.2-2.67-2.67-2.67c-0.9,0-1.69,0.45-2.17,1.13
			l-5.99-3.59c0.15-0.28,0.26-0.59,0.26-0.94c0-1.11-0.9-2.02-2.02-2.02c-0.7,0-1.28,0.38-1.64,0.92l-13.12-7.86
			c0.14-0.32,0.21-0.68,0.21-1.05c0-1.48-1.2-2.67-2.67-2.67c-1.48,0-2.67,1.2-2.67,2.67c0,0.33,0.07,0.64,0.18,0.93l-22.64,13.57
			c-0.43-0.27-0.94-0.44-1.48-0.44c-1.53,0-2.77,1.24-2.77,2.77c0,1.11,0.65,2.05,1.59,2.5v27.29c-0.77,0.47-1.29,1.31-1.29,2.28
			c0,1.48,1.2,2.67,2.67,2.67c0.6,0,1.15-0.21,1.6-0.54l22.06,13.22c-0.02,0.12-0.04,0.23-0.04,0.35c0,1.48,1.2,2.67,2.67,2.67
			c1.48,0,2.67-1.2,2.67-2.67c0-0.12-0.02-0.24-0.04-0.35l22.51-13.49c0.47,0.41,1.08,0.67,1.75,0.67c1.48,0,2.67-1.2,2.67-2.67
			C138.32,195.25,137.52,194.25,136.43,193.91z M130.73,184.73l4.7-18.34c0.05,0.01,0.1,0.01,0.15,0.02v27.38
			c-0.26,0.01-0.5,0.06-0.74,0.13l-3.67-6.17c0.36-0.34,0.59-0.82,0.59-1.36C131.76,185.66,131.33,185.05,130.73,184.73z
			 M124.13,157.42c-0.02,0.1-0.06,0.19-0.06,0.3c0,1.11,0.9,2.02,2.02,2.02c0.45,0,0.85-0.18,1.19-0.43l6.18,3.71
			c-0.08,0.25-0.13,0.5-0.13,0.78c0,0.97,0.53,1.82,1.3,2.28l-4.73,18.44c-0.02,0-0.03-0.01-0.05-0.01c-1.05,0-1.89,0.85-1.89,1.89
			c0,1.05,0.85,1.89,1.89,1.89c0.2,0,0.39-0.06,0.57-0.11l3.65,6.13c-0.67,0.49-1.1,1.27-1.1,2.15c0,0.12,0.02,0.24,0.04,0.35
			l-28.85,8.69c-0.36-0.67-1.04-1.13-1.85-1.13c-0.19,0-0.36,0.06-0.53,0.11l-12.34-24.84c0.28-0.36,0.48-0.8,0.48-1.29
			c0-1.18-0.96-2.14-2.14-2.14c-0.01,0-0.03,0.01-0.04,0.01l-4.52-9.1c1.05-0.39,1.79-1.4,1.79-2.58c0-0.09-0.02-0.18-0.03-0.27
			l26.52-6.81c0.3,0.73,1.02,1.25,1.86,1.25c0.17,0,0.31-0.06,0.47-0.09l5.86,10.06l0.73-0.43l-5.83-10
			c0.46-0.37,0.78-0.91,0.78-1.55c0-1.11-0.9-2.02-2.02-2.02c-0.27,0-0.52,0.06-0.76,0.15l-2.71-4.65c0.37-0.16,0.7-0.4,0.96-0.7
			L124.13,157.42z M83.49,194.13l4.1-13.7c0.06,0.01,0.12,0.04,0.19,0.04c0.37,0,0.69-0.12,0.99-0.28l12.24,24.64
			c-0.5,0.39-0.84,0.97-0.84,1.66c0,0.42,0.15,0.78,0.36,1.11l-15.87-9.51c0.29-0.43,0.46-0.94,0.46-1.5
			C85.12,195.49,84.45,194.54,83.49,194.13z M108.87,150.38c0.06,0,0.11-0.01,0.16-0.02l2.88,4.95c-0.33,0.34-0.53,0.8-0.54,1.31
			l-26.58,6.83c-0.1-0.24-0.24-0.45-0.4-0.64l22.41-13.43C107.29,149.98,108.03,150.38,108.87,150.38z M81.92,167.27
			c0.11,0.01,0.21,0.03,0.33,0.03c0.04,0,0.07-0.01,0.11-0.01l4.53,9.12c-0.73,0.34-1.25,1.07-1.25,1.93c0,0.81,0.47,1.49,1.14,1.86
			l-4.12,13.75c-0.07-0.01-0.14-0.02-0.21-0.02c-0.18,0-0.36,0.02-0.53,0.05V167.27z M108.75,209.62c-1.05,0-1.94,0.61-2.38,1.48
			l-4.16-2.49c0.04,0,0.07,0.02,0.11,0.02c1.18,0,2.14-0.96,2.14-2.14c0-0.07-0.03-0.12-0.04-0.19l28.85-8.69
			c0.03,0.06,0.06,0.12,0.09,0.17l-22.22,13.31C110.69,210.23,109.8,209.62,108.75,209.62z"/>
		<polygon class="st1" points="93.99,168.67 87.18,168.67 97.21,193.17 102.25,193.17 109.97,173.55 106.02,168.29 99.8,185.09 		
			"/>
		<polygon class="st2" points="108.75,168.67 115.56,168.67 119.56,175.78 123.6,168.67 130.32,168.67 123.37,180.37 130.68,193.17 
			124.14,193.17 119.47,185.32 114.65,193.17 108.16,193.17 115.92,180.32 		"/>
	</g>
	<g>
		<text transform="matrix(1 0 0 1 156.323 195.3483)" class="st1 st5 st6 st7">RESEARCH • PEPTIDES</text>
	</g>
	<g>
		<g>
			<text transform="matrix(1 0 0 1 141.0095 181.2057)" class="st1 st8 st9">VANTIX</text>
		</g>
		<g>
			<g>
				
					<linearGradient id="SVGID_00000005263599434793641130000013073392679736403854_" gradientUnits="userSpaceOnUse" x1="240.0269" y1="172.5696" x2="279.3599" y2="172.5696">
					<stop  offset="0.0168" style="stop-color:#143054"/>
					<stop  offset="1" style="stop-color:#3973B0"/>
				</linearGradient>
				<path style="fill:url(#SVGID_00000005263599434793641130000013073392679736403854_);" d="M251.94,173.81
					c0.61,0.77,0.92,1.66,0.92,2.66c0,0.9-0.22,1.7-0.66,2.38c-0.44,0.68-1.08,1.22-1.92,1.61c-0.84,0.39-1.83,0.58-2.97,0.58h-7.27
					v-16.86h6.96c1.14,0,2.13,0.19,2.96,0.56c0.83,0.37,1.46,0.89,1.88,1.55c0.43,0.66,0.64,1.41,0.64,2.25
					c0,0.98-0.26,1.8-0.79,2.46c-0.52,0.66-1.22,1.13-2.09,1.4C250.54,172.57,251.33,173.04,251.94,173.81z M243.41,171.13h3.09
					c0.8,0,1.42-0.18,1.86-0.54c0.43-0.36,0.65-0.88,0.65-1.56c0-0.68-0.22-1.2-0.65-1.57c-0.44-0.37-1.06-0.56-1.86-0.56h-3.09
					V171.13z M248.74,177.7c0.46-0.39,0.69-0.93,0.69-1.64c0-0.72-0.24-1.29-0.72-1.7c-0.48-0.41-1.14-0.62-1.96-0.62h-3.33v4.54
					h3.41C247.64,178.28,248.28,178.09,248.74,177.7z"/>
				
					<linearGradient id="SVGID_00000113322516217682524890000009496573786549611154_" gradientUnits="userSpaceOnUse" x1="240.0269" y1="172.5696" x2="279.3599" y2="172.5696">
					<stop  offset="0.0168" style="stop-color:#143054"/>
					<stop  offset="1" style="stop-color:#3973B0"/>
				</linearGradient>
				<path style="fill:url(#SVGID_00000113322516217682524890000009496573786549611154_);" d="M259.26,164.17v16.86h-3.38v-16.86
					H259.26z"/>
				
					<linearGradient id="SVGID_00000045586679569270245890000005907012793366639249_" gradientUnits="userSpaceOnUse" x1="240.0269" y1="172.5696" x2="279.3599" y2="172.5696">
					<stop  offset="0.0168" style="stop-color:#143054"/>
					<stop  offset="1" style="stop-color:#3973B0"/>
				</linearGradient>
				<path style="fill:url(#SVGID_00000045586679569270245890000005907012793366639249_);" d="M266.39,180.1
					c-1.32-0.74-2.37-1.77-3.14-3.08c-0.77-1.31-1.16-2.8-1.16-4.46c0-1.64,0.39-3.12,1.16-4.43c0.77-1.31,1.82-2.34,3.14-3.08
					c1.32-0.74,2.77-1.11,4.35-1.11c1.59,0,3.05,0.37,4.36,1.11c1.31,0.74,2.35,1.77,3.12,3.08s1.15,2.79,1.15,4.43
					c0,1.66-0.38,3.15-1.15,4.46s-1.81,2.34-3.13,3.08c-1.32,0.74-2.77,1.11-4.35,1.11C269.16,181.21,267.71,180.84,266.39,180.1z
					 M273.42,177.5c0.77-0.46,1.38-1.12,1.81-1.97c0.43-0.85,0.65-1.84,0.65-2.97c0-1.13-0.22-2.11-0.65-2.96
					c-0.44-0.85-1.04-1.49-1.81-1.94c-0.77-0.45-1.67-0.68-2.68-0.68s-1.91,0.23-2.69,0.68c-0.78,0.45-1.39,1.1-1.82,1.94
					c-0.44,0.85-0.65,1.83-0.65,2.96c0,1.13,0.22,2.12,0.65,2.97c0.43,0.85,1.04,1.51,1.82,1.97c0.78,0.46,1.68,0.69,2.69,0.69
					S272.64,177.96,273.42,177.5z"/>
			</g>
		</g>
	</g>
</g>
</svg>
