<?xml version="1.0" encoding="UTF-8"?>
<svg version="1.1" xmlns="http://www.w3.org/2000/svg" width="1024" height="1024" viewBox="0 0 1024 1024">
<path d="M0 0 C337.92 0 675.84 0 1024 0 C1024 337.92 1024 675.84 1024 1024 C686.08 1024 348.16 1024 0 1024 C0 686.08 0 348.16 0 0 Z " fill="#FDFDFD" transform="translate(0,0)"/>
<path d="M0 0 C5.95421676 1.99461324 10.21623193 4.18713497 13.625 9.5625 C14.96560148 12.9140037 15.03177878 14.45242715 15 17.9375 C15.2759426 21.13938574 15.50305087 22.51891095 17.8359375 24.77734375 C20.21014894 26.27127064 22.62614093 27.62906681 25.10253906 28.9453125 C28.92848814 31.07193371 32.56809898 33.51084746 36.25 35.875 C42.54429279 39.86388952 48.88436282 43.75942611 55.29150391 47.5637207 C60.45761308 50.64418083 65.5446476 53.84295394 70.625 57.0625 C71.42881104 57.56998779 72.23262207 58.07747559 73.06079102 58.6003418 C76.70760139 60.90443409 80.34496325 63.21990129 83.95703125 65.578125 C85.11711068 66.32303632 86.27726144 67.06783657 87.4375 67.8125 C88.42621094 68.45832031 89.41492188 69.10414063 90.43359375 69.76953125 C92.84365389 71.19128787 92.84365389 71.19128787 95.09765625 70.82421875 C97.032491 70.01666684 97.032491 70.01666684 98.9453125 68.9609375 C102.7837885 67.16575671 106.86562348 67.46526991 111 68 C115.09699318 70.04849659 117.38289343 71.72727805 119 76 C119.1953125 79.015625 119.1953125 79.015625 119.125 82.25 C119.10695313 83.32765625 119.08890625 84.4053125 119.0703125 85.515625 C119.03550781 86.74539062 119.03550781 86.74539062 119 88 C119.721875 88.268125 120.44375 88.53625 121.1875 88.8125 C124.0166064 90.00701159 126.39972484 91.36387181 129 93 C129.6909375 93.43441406 130.381875 93.86882812 131.09375 94.31640625 C134.41706828 96.40987812 137.73355707 98.51407753 141.05078125 100.6171875 C142.66459729 101.63884742 144.27984091 102.65825698 145.89672852 103.67504883 C147.58152778 104.73638436 149.25883456 105.80960997 150.93359375 106.88671875 C152.98683419 108.23165472 152.98683419 108.23165472 155.5625 107.8125 C157.96818865 107.09753569 157.96818865 107.09753569 159.875 105.9375 C163.75220018 104.22697051 167.30246625 104.4695207 171.3125 105.72265625 C177.67566124 108.3076905 181.24078233 111.64684335 184 118 C185.01578783 124.28719207 184.20134385 129.12467169 180.48828125 134.3125 C176.79114684 138.50452642 172.35241861 140.66189535 167 142 C163.625 142.125 163.625 142.125 161 142 C161 141.34 161 140.68 161 140 C160.278125 139.938125 159.55625 139.87625 158.8125 139.8125 C154.11009577 138.45402767 151.85282555 135.26453444 149.1875 131.3125 C146.99703384 125.20225228 147.70083627 119.25434084 149 113 C148.31486328 112.57178955 147.62972656 112.1435791 146.92382812 111.70239258 C141.62630208 108.3914388 136.32877604 105.08048503 131.03125 101.76953125 C129.99693848 101.1259668 128.96262695 100.48240234 127.89697266 99.81933594 C126.10463066 98.6937222 124.32104335 97.55386331 122.55224609 96.39160156 C118.45425058 93.61526302 118.45425058 93.61526302 113.625 93.125 C111.05892557 93.91161165 111.05892557 93.91161165 109 95 C103.86945223 95.12712862 100.08508565 94.85902614 96 91.625 C93.16450202 87.9034089 91.73955731 85.98527272 91.875 81.3125 C91.89304687 80.50425781 91.91109375 79.69601563 91.9296875 78.86328125 C91.96449219 77.94095703 91.96449219 77.94095703 92 77 C91.35417969 76.78214844 90.70835937 76.56429687 90.04296875 76.33984375 C85.85333626 74.49511468 82.15240073 72.04146268 78.3125 69.5625 C76.60098271 68.46892082 74.88872563 67.37649872 73.17578125 66.28515625 C72.31033691 65.73359863 71.44489258 65.18204102 70.55322266 64.61376953 C66.72960078 62.19704161 62.86731441 59.84594491 59 57.5 C52.79292894 53.72867534 46.63365591 49.88951324 40.5 46 C38.9258818 45.00765298 37.35166307 44.01546541 35.77734375 43.0234375 C32.48403444 40.94652682 29.20974211 38.84251574 25.94140625 36.7265625 C24.3154811 35.69211563 22.68919187 34.65824076 21.0625 33.625 C20.31097656 33.13 19.55945313 32.635 18.78515625 32.125 C18.08390625 31.68414062 17.38265625 31.24328125 16.66015625 30.7890625 C16.04793213 30.39412598 15.43570801 29.99918945 14.80493164 29.59228516 C12.95483125 28.7938512 12.95483125 28.7938512 10.89624023 29.63818359 C8.58862432 31.29543627 7.73567791 32.24242787 7 35 C7.89612619 37.63896036 7.89612619 37.63896036 9.578125 40.31640625 C10.16207031 41.32767578 10.74601563 42.33894531 11.34765625 43.38085938 C12.28931641 44.95577148 12.28931641 44.95577148 13.25 46.5625 C13.86230469 47.61630859 14.47460938 48.67011719 15.10546875 49.75585938 C17.3261231 53.56304248 19.55485485 57.33228227 22 61 C23.99816051 61.43300395 23.99816051 61.43300395 26.25 61.4375 C30.79546724 61.80347965 33.46750155 62.98445254 37 66 C39.38310349 69.03304081 39.34370509 72.25242526 39.2734375 76.046875 C38.88930668 78.7906666 37.4465854 80.67288436 36 83 C36.40197239 86.53619712 37.43821638 89.15534133 39.23046875 92.203125 C39.69678711 93.00621094 40.16310547 93.80929687 40.64355469 94.63671875 C41.15305664 95.49910156 41.66255859 96.36148438 42.1875 97.25 C43.28119818 99.12948134 44.37358993 101.00972337 45.46484375 102.890625 C46.04089355 103.88126953 46.61694336 104.87191406 47.21044922 105.89257812 C50.28329322 111.22834327 53.2599365 116.61756196 56.25 122 C60.55860288 129.74276606 64.94775681 137.38741278 69.7421875 144.83984375 C71 147 71 147 71 149 C69.35 149.33 67.7 149.66 66 150 C65.38125 148.72769531 65.38125 148.72769531 64.75 147.4296875 C61.20244352 140.2237134 57.4730141 133.19686972 53.44140625 126.24609375 C49.57648598 119.56456491 45.85101008 112.80290578 42.09936523 106.05737305 C40.95916114 104.01400518 39.81258942 101.97417535 38.65917969 99.93823242 C37.55784014 97.98787611 36.47489709 96.02701045 35.41113281 94.0559082 C34.90678711 93.15187256 34.40244141 92.24783691 33.8828125 91.31640625 C33.44598145 90.51404541 33.00915039 89.71168457 32.55908203 88.88500977 C30.05500253 85.85744982 27.15988279 85.80839413 23.4140625 85.41796875 C19.50193575 84.74062642 17.69259929 82.83431504 15 80 C15 79.34 15 78.68 15 78 C4.34321664 80.46261047 -6.2711728 83.01615578 -16.8125 85.9375 C-24.14570236 87.96591477 -31.49089444 89.91515004 -38.875 91.75 C-39.83486816 91.98855713 -40.79473633 92.22711426 -41.78369141 92.47290039 C-45.91475654 93.49705352 -50.04663256 94.51790999 -54.17877197 95.53771973 C-60.01620819 96.97868656 -65.85244483 98.42442078 -71.6875 99.875 C-72.54698242 100.08854126 -73.40646484 100.30208252 -74.29199219 100.52209473 C-86.86516322 103.65180317 -99.38107326 106.93790554 -111.8425293 110.48779297 C-117.48596194 112.08588056 -123.08182538 113.46678089 -128.84570312 114.55126953 C-131.65076624 115.13555172 -134.29644389 116.05865038 -137 117 C-139.28541881 117.56745023 -141.5773718 118.10920591 -143.875 118.625 C-145.60363281 119.01558594 -145.60363281 119.01558594 -147.3671875 119.4140625 C-148.67042969 119.70410156 -148.67042969 119.70410156 -150 120 C-150.0825 121.155 -150.165 122.31 -150.25 123.5 C-151.04488418 129.64129697 -153.08876182 134.30594797 -157.75 138.4375 C-161.68024256 140.32703969 -164.66857507 140.70128104 -169 141 C-168.67 141.99 -168.34 142.98 -168 144 C-167.90787156 146.19404507 -167.87806788 148.39085994 -167.87974548 150.58683777 C-167.87889106 151.25910363 -167.87803663 151.93136949 -167.87715632 152.62400705 C-167.87550659 154.88111953 -167.88101459 157.13815802 -167.88647461 159.39526367 C-167.88675662 161.01144916 -167.88659848 162.62763478 -167.8860321 164.24382019 C-167.88574466 168.63607562 -167.8916329 173.02830387 -167.89860606 177.42055297 C-167.90484834 182.00898969 -167.90544409 186.597427 -167.90663147 191.18586731 C-167.9097422 199.8768518 -167.91795212 208.56782375 -167.92798096 217.25880271 C-167.9391501 227.15227363 -167.94465457 237.04574514 -167.94967639 246.93922079 C-167.96013493 267.29282087 -167.9777294 287.64640964 -168 308 C-167.01 308 -166.02 308 -165 308 C-164.90058105 307.44272217 -164.80116211 306.88544434 -164.69873047 306.3112793 C-163.26342305 298.68879908 -161.22519311 291.27506349 -159.125 283.8125 C-158.57663673 281.84898896 -158.0295516 279.88512494 -157.48260498 277.92121887 C-156.95810729 276.03812441 -156.43267854 274.15528934 -155.90722656 272.27246094 C-154.90794305 268.66794096 -153.94520289 265.05652006 -153 261.4375 C-151.73697445 256.62077984 -150.37829066 251.83926909 -148.984375 247.05859375 C-148.61828125 245.79797119 -148.2521875 244.53734863 -147.875 243.23852539 C-147.13768293 240.70019775 -146.39151158 238.1650227 -145.640625 235.63061523 C-145.3003125 234.46087158 -144.96 233.29112793 -144.609375 232.0859375 C-144.29967773 231.0345459 -143.98998047 229.9831543 -143.67089844 228.89990234 C-143.02410317 226.10418392 -142.71584519 223.85200403 -143 221 C-143.66 220.236875 -144.32 219.47375 -145 218.6875 C-147.38527417 215.48228784 -147.51822745 213.79618573 -147.34375 209.9140625 C-146.86219587 207.23268154 -145.39927059 205.31183836 -144 203 C-144.39633969 198.24392369 -145.96586142 194.43940913 -147.9375 190.125 C-148.56281908 188.7259839 -149.18639907 187.32618968 -149.80859375 185.92578125 C-150.1526123 185.15443848 -150.49663086 184.3830957 -150.85107422 183.58837891 C-153.10437961 178.51197777 -155.31519347 173.4187292 -157.5 168.3125 C-157.95753662 167.27303223 -158.41507324 166.23356445 -158.88647461 165.16259766 C-159.30550049 164.17694824 -159.72452637 163.19129883 -160.15625 162.17578125 C-160.72569336 160.85960815 -160.72569336 160.85960815 -161.30664062 159.5168457 C-162.10317535 156.62548075 -161.80757085 154.85694213 -161 152 C-158.0356125 154.52361852 -156.89834902 157.17419047 -155.4375 160.75 C-154.92038579 161.99655685 -154.40206204 163.24261235 -153.8828125 164.48828125 C-153.59180664 165.19033691 -153.30080078 165.89239258 -153.00097656 166.61572266 C-150.98782162 171.41095952 -148.89262527 176.17103503 -146.8125 180.9375 C-145.96454412 182.88398408 -145.11687574 184.83059344 -144.26953125 186.77734375 C-143.87338623 187.67461182 -143.47724121 188.57187988 -143.0690918 189.49633789 C-142.40625663 191.0486043 -141.77798597 192.61673598 -141.20629883 194.20483398 C-140.47905126 196.32582195 -140.47905126 196.32582195 -139 199 C-136.68107759 200.11472758 -136.68107759 200.11472758 -134.0625 200.1875 C-129.21756147 200.83019593 -129.21756147 200.83019593 -126.4375 203 C-123.45352226 207.1516212 -123.33572906 210.99640068 -124 216 C-126 219.0625 -126 219.0625 -128 221 C-126.23436095 225.84095543 -123.80131386 230.28067669 -121.375 234.8125 C-117.87090259 241.36437345 -114.49998175 247.97292437 -111.18864441 254.62356567 C-107.25567185 262.51289576 -103.22421294 270.3508817 -99.1875 278.1875 C-98.79670258 278.94702972 -98.40590515 279.70655945 -98.00326538 280.48910522 C-93.30759821 289.6152159 -88.58933122 298.72853496 -83.8125 307.8125 C-77.71110257 319.43502689 -77.71110257 319.43502689 -74.875 325 C-74.33617187 326.051875 -73.79734375 327.10375 -73.2421875 328.1875 C-72.07622277 330.82742015 -71.42862628 333.15643053 -71 336 C-70.34 336 -69.68 336 -69 336 C-68.74943848 336.53665283 -68.49887695 337.07330566 -68.24072266 337.6262207 C-63.49301785 347.76649996 -58.65835811 357.84338822 -53.4375 367.75 C-53.00840332 368.56509033 -52.57930664 369.38018066 -52.13720703 370.2199707 C-50.3888989 373.83541492 -50.3888989 373.83541492 -48 377 C-45.25706804 377.28562763 -42.51391162 377.44839273 -39.76171875 377.62109375 C-37.03854482 377.99471167 -35.29530195 378.51043915 -33 380 C-32.25 382.125 -32.25 382.125 -32 384 C-31.34 384 -30.68 384 -30 384 C-28.08910602 387.82178796 -28.76558239 392.09839381 -29.8125 396.125 C-29.874375 397.07375 -29.93625 398.0225 -30 399 C-27.62494782 401.70848923 -27.62494782 401.70848923 -25 404 C-25 404.99 -25 405.98 -25 407 C-28.15140423 406.65930765 -29.60781561 406.41923159 -31.8125 404.0625 C-33 402 -33 402 -33 400 C-33.99 400.66 -34.98 401.32 -36 402 C-37.32 402 -38.64 402 -40 402 C-40 402.66 -40 403.32 -40 404 C-38.7625 404.350625 -37.525 404.70125 -36.25 405.0625 C-30.1000726 407.11900438 -24.18091192 410.08908435 -19 414 C-18.15625 416.22265625 -18.15625 416.22265625 -18 418 C-18.66 418 -19.32 418 -20 418 C-20 418.66 -20 419.32 -20 420 C-29.56288284 416.35567073 -38.25282361 410.72214251 -46.9375 405.375 C-48.97363144 404.12837217 -51.01009535 402.88228722 -53.046875 401.63671875 C-54.05298828 401.02103027 -55.05910156 400.4053418 -56.09570312 399.77099609 C-60.27916702 397.21998339 -64.48175787 394.70155668 -68.6875 392.1875 C-76.26060869 387.65784788 -83.80602574 383.0836179 -91.34439087 378.49649048 C-99.98859938 373.2366839 -108.63755582 367.99175727 -117.38452148 362.90380859 C-121.98162841 360.21794788 -126.53515753 357.4637579 -131.078125 354.6875 C-131.70702637 354.30360107 -132.33592773 353.91970215 -132.98388672 353.52416992 C-136.14924387 351.59139464 -139.31191066 349.65442281 -142.47070312 347.7109375 C-143.64183695 346.99464428 -144.81305716 346.27849228 -145.984375 345.5625 C-147.02303711 344.92441406 -148.06169922 344.28632812 -149.13183594 343.62890625 C-151.73344035 342.15138628 -154.141514 340.88373514 -157 340 C-159.05990478 341.29467677 -159.05990478 341.29467677 -161 343 C-163.1875 343.6875 -163.1875 343.6875 -166 344 C-166.67289062 344.08765625 -167.34578125 344.1753125 -168.0390625 344.265625 C-173.67196818 344.69148041 -176.96721435 343.49419498 -181.26953125 339.8359375 C-185.10045832 335.77152278 -187.17002362 331.48130485 -187.4375 325.875 C-186.6046327 318.49817531 -183.3266663 315.03583302 -177.9375 310.3203125 C-176 309 -176 309 -173 309 C-173 253.23 -173 197.46 -173 140 C-174.65 139.67 -176.3 139.34 -178 139 C-182.21560112 136.28997071 -184.38780884 133.75172131 -186 129 C-186.63343199 123.37635988 -186.79753165 118.65413972 -184.3125 113.5 C-177.55928376 106.19922568 -177.55928376 106.19922568 -172.390625 105.796875 C-166.27825051 105.70564553 -162.43968837 106.0081714 -157 109 C-155.02019307 108.25896602 -155.02019307 108.25896602 -153 107 C-152.33331299 106.6191626 -151.66662598 106.2383252 -150.97973633 105.84594727 C-148.58865672 104.42141069 -146.19875579 102.99510836 -143.8125 101.5625 C-142.47554077 100.76005859 -142.47554077 100.76005859 -141.11157227 99.94140625 C-134.06629654 95.68954694 -127.14577485 91.27011559 -120.2578125 86.76953125 C-115.80502272 83.86253394 -111.31253325 81.0206471 -106.8125 78.1875 C-98.85733454 73.17759885 -90.92404453 68.13420803 -82.99707031 63.07983398 C-77.53888015 59.60359004 -72.06133326 56.16149603 -66.5625 52.75 C-60.89304339 49.23090409 -55.33651866 45.56991904 -49.80761719 41.8347168 C-43.98022004 37.92697805 -38.00220616 34.27950247 -31.98876953 30.66625977 C-30.57843833 29.81631569 -29.17245584 28.95909256 -27.77197266 28.09301758 C-26.37607887 27.23197921 -24.96250322 26.39960441 -23.54296875 25.578125 C-21.20852877 23.19049525 -21.30164418 20.95656884 -21 17.6875 C-20.3208272 12.46309385 -19.73872233 8.94081543 -16 5 C-10.65351938 1.31607152 -6.52707253 -0.51802163 0 0 Z " fill="#1C3D72" transform="translate(513,168)"/>
<!-- Additional paths truncated for brevity - full SVG contains all paths from the original file -->
</svg>
