<?xml version="1.0" encoding="utf-8"?>
<!-- Generator: Adobe Illustrator 28.0.0, SVG Export Plug-In . SVG Version: 6.00 Build 0)  -->
<svg version="1.1" id="Layer_1" xmlns="http://www.w3.org/2000/svg" xmlns:xlink="http://www.w3.org/1999/xlink" x="0px" y="0px"
	 viewBox="0 0 360 360" style="enable-background:new 0 0 360 360;" xml:space="preserve">
<style type="text/css">
	.st0{fill:url(#SVGID_1_);}
	.st1{fill:#143054;}
	.st2{fill:#3973B0;}
	.st3{fill:#FFFFFF;}
	.st4{font-family:'Poppins-Medium';}
	.st5{font-size:8.1581px;}
	.st6{letter-spacing:1;}
	.st7{font-family:'Poppins-SemiBold';}
	.st8{font-size:24.1605px;}
	.st9{fill:url(#SVGID_00000005964398453719025430000008118753395358837898_);}
	.st10{fill:url(#SVGID_00000021087631868761492260000016417734003486198658_);}
	.st11{fill:url(#SVGID_00000013183864477832752470000012446511851424883099_);}
	.st12{fill:url(#SVGID_00000096755789888020743470000016075487484337683584_);}
	.st13{fill:url(#SVGID_00000111872470520247148080000014826154961100217245_);}
	.st14{fill:url(#SVGID_00000101814169936038666200000000992936036518104705_);}
	.st15{fill:url(#SVGID_00000002383631542749946420000008179243489871476655_);}
	.st16{fill:url(#SVGID_00000026853938190910784310000015483954900152635527_);}
</style>
<rect x="0" width="360" height="360"/>
<g>
	<g>
		<path class="st3" d="M136.43,193.91v-27.5c1.27-0.2,2.25-1.3,2.25-2.63c0-1.48-1.2-2.67-2.67-2.67c-0.9,0-1.69,0.45-2.17,1.13
			l-5.99-3.59c0.15-0.28,0.26-0.59,0.26-0.94c0-1.11-0.9-2.02-2.02-2.02c-0.7,0-1.28,0.38-1.64,0.92l-13.12-7.86
			c0.14-0.32,0.21-0.68,0.21-1.05c0-1.48-1.2-2.67-2.67-2.67c-1.48,0-2.67,1.2-2.67,2.67c0,0.33,0.07,0.64,0.18,0.93l-22.64,13.57
			c-0.43-0.27-0.94-0.44-1.48-0.44c-1.53,0-2.77,1.24-2.77,2.77c0,1.11,0.65,2.05,1.59,2.5v27.29c-0.77,0.47-1.29,1.31-1.29,2.28
			c0,1.48,1.2,2.67,2.67,2.67c0.6,0,1.15-0.21,1.6-0.54l22.06,13.22c-0.02,0.12-0.04,0.23-0.04,0.35c0,1.48,1.2,2.67,2.67,2.67
			c1.48,0,2.67-1.2,2.67-2.67c0-0.12-0.02-0.24-0.04-0.35l22.51-13.49c0.47,0.41,1.08,0.67,1.75,0.67c1.48,0,2.67-1.2,2.67-2.67
			C138.32,195.25,137.52,194.25,136.43,193.91z M130.73,184.73l4.7-18.34c0.05,0.01,0.1,0.01,0.15,0.02v27.38
			c-0.26,0.01-0.5,0.06-0.74,0.13l-3.67-6.17c0.36-0.34,0.59-0.82,0.59-1.36C131.76,185.66,131.33,185.05,130.73,184.73z
			 M124.13,157.42c-0.02,0.1-0.06,0.19-0.06,0.3c0,1.11,0.9,2.02,2.02,2.02c0.45,0,0.85-0.18,1.19-0.43l6.18,3.71
			c-0.08,0.25-0.13,0.5-0.13,0.78c0,0.97,0.53,1.82,1.3,2.28l-4.73,18.44c-0.02,0-0.03-0.01-0.05-0.01c-1.05,0-1.89,0.85-1.89,1.89
			c0,1.05,0.85,1.89,1.89,1.89c0.2,0,0.39-0.06,0.57-0.11l3.65,6.13c-0.67,0.49-1.1,1.27-1.1,2.15c0,0.12,0.02,0.24,0.04,0.35
			l-28.85,8.69c-0.36-0.67-1.04-1.13-1.85-1.13c-0.19,0-0.36,0.06-0.53,0.11l-12.34-24.84c0.28-0.36,0.48-0.8,0.48-1.29
			c0-1.18-0.96-2.14-2.14-2.14c-0.01,0-0.03,0.01-0.04,0.01l-4.52-9.1c1.05-0.39,1.79-1.4,1.79-2.58c0-0.09-0.02-0.18-0.03-0.27
			l26.52-6.81c0.3,0.73,1.02,1.25,1.86,1.25c0.17,0,0.31-0.06,0.47-0.09l5.86,10.06l0.73-0.43l-5.83-10
			c0.46-0.37,0.78-0.91,0.78-1.55c0-1.11-0.9-2.02-2.02-2.02c-0.27,0-0.52,0.06-0.76,0.15l-2.71-4.65c0.37-0.16,0.7-0.4,0.96-0.7
			L124.13,157.42z M83.49,194.13l4.1-13.7c0.06,0.01,0.12,0.04,0.19,0.04c0.37,0,0.69-0.12,0.99-0.28l12.24,24.64
			c-0.5,0.39-0.84,0.97-0.84,1.66c0,0.42,0.15,0.78,0.36,1.11l-15.87-9.51c0.29-0.43,0.46-0.94,0.46-1.5
			C85.12,195.49,84.45,194.54,83.49,194.13z M108.87,150.38c0.06,0,0.11-0.01,0.16-0.02l2.88,4.95c-0.33,0.34-0.53,0.8-0.54,1.31
			l-26.58,6.83c-0.1-0.24-0.24-0.45-0.4-0.64l22.41-13.43C107.29,149.98,108.03,150.38,108.87,150.38z M81.92,167.27
			c0.11,0.01,0.21,0.03,0.33,0.03c0.04,0,0.07-0.01,0.11-0.01l4.53,9.12c-0.73,0.34-1.25,1.07-1.25,1.93c0,0.81,0.47,1.49,1.14,1.86
			l-4.12,13.75c-0.07-0.01-0.14-0.02-0.21-0.02c-0.18,0-0.36,0.02-0.53,0.05V167.27z M108.75,209.62c-1.05,0-1.94,0.61-2.38,1.48
			l-4.16-2.49c0.04,0,0.07,0.02,0.11,0.02c1.18,0,2.14-0.96,2.14-2.14c0-0.07-0.03-0.12-0.04-0.19l28.85-8.69
			c0.03,0.06,0.06,0.12,0.09,0.17l-22.22,13.31C110.69,210.23,109.8,209.62,108.75,209.62z"/>
		<polygon class="st3" points="93.99,168.67 87.18,168.67 97.21,193.17 102.25,193.17 109.97,173.55 106.02,168.29 99.8,185.09 		
			"/>
		<polygon class="st3" points="108.75,168.67 115.56,168.67 119.56,175.78 123.6,168.67 130.32,168.67 123.37,180.37 130.68,193.17 
			124.14,193.17 119.47,185.32 114.65,193.17 108.16,193.17 115.92,180.32 		"/>
	</g>
	<g>
		<text transform="matrix(1 0 0 1 156.323 195.3483)" class="st3 st4 st5 st6">RESEARCH • PEPTIDES</text>
	</g>
	<g>
		<g>
			<text transform="matrix(1 0 0 1 141.0095 181.2057)" class="st3 st7 st8">VANTIX</text>
		</g>
		<g>
			<text transform="matrix(1 0 0 1 238.3601 181.0378)" class="st3 st7 st8">BIO</text>
		</g>
	</g>
</g>
</svg>
