<?xml version="1.0" encoding="utf-8"?>
<!-- Generator: Adobe Illustrator 28.0.0, SVG Export Plug-In . SVG Version: 6.00 Build 0)  -->
<svg version="1.1" id="Layer_1" xmlns="http://www.w3.org/2000/svg" xmlns:xlink="http://www.w3.org/1999/xlink" x="0px" y="0px"
	 viewBox="86 80 186 210" xml:space="preserve">
<style type="text/css">
	.st0{fill:url(#SVGID_1_);}
	.st1{fill:#143054;}
	.st2{fill:#3973B0;}
	.st3{fill:#FFFFFF;}
	.st4{fill:url(#SVGID_00000029757501003922454070000000617428461171124608_);}
	.st5{fill:url(#SVGID_00000155857793111498133990000010981348486637768578_);}
	.st6{fill:url(#SVGID_00000183927804065896624080000014494909308691552697_);}
	.st7{fill:url(#SVGID_00000136404114887311947930000017539234560387064972_);}
	.st8{fill:url(#SVGID_00000154425134118723758630000011644224084086907785_);}
	.st9{fill:url(#SVGID_00000088813436131995041640000012680366912671881652_);}
	.st10{fill:url(#SVGID_00000139995957108964531000000013206524551177956003_);}
	.st11{fill:url(#SVGID_00000106121641755727673780000002338580711397784757_);}
</style>
<g>
	<linearGradient id="SVGID_1_" gradientUnits="userSpaceOnUse" x1="94.2404" y1="180" x2="265.7596" y2="180">
		<stop  offset="0.0168" style="stop-color:#143054"/>
		<stop  offset="1" style="stop-color:#3973B0"/>
	</linearGradient>
	<path class="st0" d="M259.25,220.31v-79.68c3.69-0.59,6.51-3.76,6.51-7.62c0-4.27-3.46-7.74-7.74-7.74c-2.6,0-4.9,1.3-6.3,3.27
		l-17.35-10.39c0.44-0.82,0.76-1.72,0.76-2.71c0-3.23-2.62-5.84-5.84-5.84c-2.02,0-3.72,1.09-4.77,2.65l-38.01-22.78
		c0.4-0.93,0.62-1.96,0.62-3.04c0-4.27-3.46-7.74-7.74-7.74c-4.27,0-7.74,3.47-7.74,7.74c0,0.95,0.2,1.85,0.51,2.7l-65.61,39.31
		c-1.24-0.79-2.71-1.27-4.3-1.27c-4.43,0-8.02,3.59-8.02,8.02c0,3.21,1.9,5.95,4.61,7.23v79.06c-2.24,1.36-3.75,3.79-3.75,6.6
		c0,4.27,3.46,7.74,7.74,7.74c1.75,0,3.34-0.6,4.64-1.58l63.93,38.31c-0.04,0.34-0.1,0.67-0.1,1.02c0,4.27,3.47,7.74,7.74,7.74
		c4.27,0,7.74-3.47,7.74-7.74c0-0.35-0.06-0.68-0.1-1.02l65.22-39.08c1.36,1.2,3.13,1.95,5.08,1.95c4.27,0,7.74-3.46,7.74-7.74
		C264.73,224.19,262.41,221.28,259.25,220.31z M242.73,193.72l13.63-53.15c0.14,0.03,0.29,0.04,0.44,0.07v79.33
		c-0.75,0.02-1.46,0.16-2.13,0.38l-10.65-17.86c1.04-1,1.7-2.39,1.7-3.95C245.71,196.41,244.48,194.63,242.73,193.72z
		 M223.62,114.57c-0.05,0.29-0.18,0.56-0.18,0.87c0,3.23,2.62,5.84,5.84,5.84c1.32,0,2.47-0.52,3.45-1.25l17.92,10.74
		c-0.22,0.72-0.37,1.46-0.37,2.25c0,2.82,1.52,5.26,3.78,6.62l-13.7,53.43c-0.05,0-0.09-0.03-0.13-0.03c-3.03,0-5.49,2.46-5.49,5.49
		c0,3.03,2.46,5.49,5.49,5.49c0.58,0,1.12-0.16,1.64-0.33l10.58,17.75c-1.93,1.41-3.2,3.67-3.2,6.24c0,0.35,0.06,0.68,0.1,1.02
		l-83.59,25.18c-1.05-1.93-3.02-3.29-5.37-3.29c-0.55,0-1.04,0.18-1.55,0.31l-35.76-71.97c0.82-1.05,1.38-2.31,1.38-3.74
		c0-3.42-2.77-6.19-6.19-6.19c-0.04,0-0.08,0.02-0.12,0.02l-13.1-26.36c3.03-1.14,5.2-4.05,5.2-7.48c0-0.26-0.05-0.51-0.08-0.77
		l76.85-19.74c0.87,2.12,2.95,3.62,5.39,3.62c0.48,0,0.91-0.16,1.36-0.27l16.99,29.14l2.12-1.24l-16.89-28.97
		c1.35-1.07,2.26-2.65,2.26-4.5c0-3.23-2.62-5.84-5.84-5.84c-0.78,0-1.52,0.17-2.2,0.44l-7.86-13.48c1.08-0.46,2.02-1.17,2.79-2.04
		L223.62,114.57z M105.86,220.95l11.88-39.68c0.19,0.02,0.35,0.11,0.54,0.11c1.06,0,2.01-0.33,2.88-0.8l35.48,71.4
		c-1.45,1.13-2.43,2.82-2.43,4.8c0,1.21,0.44,2.27,1.03,3.22l-46-27.56c0.85-1.24,1.34-2.74,1.34-4.35
		C110.59,224.88,108.64,222.13,105.86,220.95z M179.39,94.17c0.16,0,0.31-0.04,0.47-0.05l8.36,14.33c-0.94,1-1.52,2.32-1.58,3.78
		l-77.02,19.79c-0.29-0.68-0.7-1.3-1.16-1.86l64.93-38.9C174.81,93.02,176.95,94.17,179.39,94.17z M101.31,143.11
		c0.31,0.04,0.62,0.1,0.95,0.1c0.11,0,0.21-0.03,0.32-0.03l13.13,26.43c-2.12,0.98-3.61,3.1-3.61,5.59c0,2.35,1.36,4.33,3.3,5.38
		l-11.93,39.84c-0.21-0.02-0.41-0.06-0.62-0.06c-0.53,0-1.04,0.05-1.53,0.15V143.11z M179.05,265.83c-3.03,0-5.63,1.76-6.9,4.3
		l-12.06-7.23c0.11,0.01,0.2,0.06,0.3,0.06c3.42,0,6.19-2.77,6.19-6.19c0-0.19-0.09-0.36-0.11-0.55l83.58-25.18
		c0.08,0.17,0.18,0.34,0.27,0.5l-64.38,38.58C184.68,267.59,182.08,265.83,179.05,265.83z"/>
	<polygon class="st1" points="136.28,147.16 116.54,147.16 145.62,218.17 160.23,218.17 182.6,161.32 171.15,146.06 153.12,194.75 	
		"/>
	<polygon class="st2" points="179.05,147.16 198.78,147.16 210.36,167.77 222.07,147.16 241.55,147.16 221.41,181.06 242.6,218.17 
		223.65,218.17 210.1,195.41 196.15,218.17 177.33,218.17 199.83,180.92 	"/>
</g>
</svg>
