<?xml version="1.0" encoding="UTF-8"?>
<svg version="1.1" xmlns="http://www.w3.org/2000/svg" viewBox="300 150 400 600">
<!-- Background removed for transparency -->
<g id="vx-icon">
<path d="M0 0 C5.95421676 1.99461324 10.21623193 4.18713497 13.625 9.5625 C14.96560148 12.9140037 15.03177878 14.45242715 15 17.9375 C15.2759426 21.13938574 15.50305087 22.51891095 17.8359375 24.77734375 C20.21014894 26.27127064 22.62614093 27.62906681 25.10253906 28.9453125 C28.92848814 31.07193371 32.56809898 33.51084746 36.25 35.875 C42.54429279 39.86388952 48.88436282 43.75942611 55.29150391 47.5637207 C60.45761308 50.64418083 65.5446476 53.84295394 70.625 57.0625 C71.42881104 57.56998779 72.23262207 58.07747559 73.06079102 58.6003418 C76.70760139 60.90443409 80.34496325 63.21990129 83.95703125 65.578125 C85.11711068 66.32303632 86.27726144 67.06783657 87.4375 67.8125 C88.42621094 68.45832031 89.41492188 69.10414063 90.43359375 69.76953125 C92.84365389 71.19128787 92.84365389 71.19128787 95.09765625 70.82421875 C97.032491 70.01666684 97.032491 70.01666684 98.9453125 68.9609375 C102.7837885 67.16575671 106.86562348 67.46526991 111 68 C115.09699318 70.04849659 117.38289343 71.72727805 119 76 C119.1953125 79.015625 119.1953125 79.015625 119.125 82.25 C119.10695313 83.32765625 119.08890625 84.4053125 119.0703125 85.515625 C119.03550781 86.74539062 119.03550781 86.74539062 119 88 C119.721875 88.268125 120.44375 88.53625 121.1875 88.8125 C124.0166064 90.00701159 126.39972484 91.36387181 129 93 C129.6909375 93.43441406 130.381875 93.86882812 131.09375 94.31640625 C134.41706828 96.40987812 137.73355707 98.51407753 141.05078125 100.6171875 C142.66459729 101.63884742 144.27984091 102.65825698 145.89672852 103.67504883 C147.58152778 104.73638436 149.25883456 105.80960997 150.93359375 106.88671875 C152.98683419 108.23165472 152.98683419 108.23165472 155.5625 107.8125 C157.96818865 107.09753569 157.96818865 107.09753569 159.875 105.9375 C163.75220018 104.22697051 167.30246625 104.4695207 171.3125 105.72265625 C177.67566124 108.3076905 181.24078233 111.64684335 184 118 C185.01519487 124.28352192 184.19896616 129.11352476 180.5 134.3046875 C178.21063318 136.89214896 176.07110968 138.39768191 173 140 C172.01 140 171.02 140 170 140 C170 195.77 170 251.54 170 309 C171.65 309.33 173.3 309.66 175 310 C179.93866183 313.35829005 182.23922334 316.13074445 184 322 C184.71679686 327.70450836 184.31397309 332.13950613 181 337 C175.26645068 342.48426456 171.0655488 344.24952033 163.31640625 344.16015625 C161 344 161 344 157.125 343.125 C153.37103793 342.61153177 151.33916191 343.63509628 148.08203125 345.49609375 C147.11233398 346.04652344 146.14263672 346.59695313 145.14355469 347.1640625 C144.10618164 347.76992188 143.06880859 348.37578125 142 349 C140.40140137 349.93199219 140.40140137 349.93199219 138.77050781 350.8828125 C135.35985417 352.8877846 131.95955083 354.90961731 128.5625 356.9375 C117.82050845 363.33649935 107.06915189 369.7155744 96.1875 375.875 C90.05255651 379.36307479 83.99822263 382.97475998 77.9609375 386.62890625 C72.67513955 389.81120822 67.33354903 392.89868595 62 396 C43.99884113 406.46206835 43.99884113 406.46206835 26.12109375 417.1328125 C24.46198091 418.12537313 22.79204171 419.10527938 21.06713867 419.97851562 C17.34020165 421.72642232 17.34020165 421.72642232 15.30859375 425.078125 C15.37240234 426.15320313 15.37240234 426.15320313 15.4375 427.25 C15.25422578 432.80320885 12.78683903 436.08013384 9 440 C4.11765369 444.03860102 -0.09753708 444.34643101 -6.2734375 444.28125 C-11.2992892 443.76282404 -13.90297768 441.157968 -17.25 437.625 C-19.50821629 434.23767556 -21.14992931 431.0682556 -20.84765625 426.8984375 C-20.73093669 424.18120623 -20.90436042 422.50616771 -22 420 C-25.57551265 417.18561133 -29.59714105 415.29313856 -33.640625 413.25048828 C-38.2621503 410.80104162 -42.67548052 407.99562942 -47.125 405.25 C-49.13350611 404.02114034 -51.14262249 402.79327759 -53.15234375 401.56640625 C-54.13960449 400.96328613 -55.12686523 400.36016602 -56.14404297 399.73876953 C-60.3127355 397.20077772 -64.49874905 394.69220298 -68.6875 392.1875 C-76.26053912 387.65773071 -83.80602494 383.08361839 -91.34439087 378.49649048 C-99.98859938 373.2366839 -108.63755582 367.99175727 -117.38452148 362.90380859 C-121.98162841 360.21794788 -126.53515753 357.4637579 -131.078125 354.6875 C-131.70702637 354.30360107 -132.33592773 353.91970215 -132.98388672 353.52416992 C-136.14924387 351.59139464 -139.31191066 349.65442281 -142.47070312 347.7109375 C-143.64183695 346.99464428 -144.81305716 346.27849228 -145.984375 345.5625 C-147.02303711 344.92441406 -148.06169922 344.28632812 -149.13183594 343.62890625 C-151.73344035 342.15138628 -154.141514 340.88373514 -157 340 C-159.05990478 341.29467677 -159.05990478 341.29467677 -161 343 C-163.1875 343.6875 -163.1875 343.6875 -166 344 C-166.67289062 344.08765625 -167.34578125 344.1753125 -168.0390625 344.265625 C-173.67196818 344.69148041 -176.96721435 343.49419498 -181.26953125 339.8359375 C-185.10045832 335.77152278 -187.17002362 331.48130485 -187.4375 325.875 C-186.6046327 318.49817531 -183.3266663 315.03583302 -177.9375 310.3203125 C-176 309 -176 309 -173 309 C-173 253.23 -173 197.46 -173 140 C-174.65 139.67 -176.3 139.34 -178 139 C-182.21560112 136.28997071 -184.38780884 133.75172131 -186 129 C-186.63343199 123.37635988 -186.79753165 118.65413972 -184.3125 113.5 C-177.55928376 106.19922568 -177.55928376 106.19922568 -172.390625 105.796875 C-166.27825051 105.70564553 -162.43968837 106.0081714 -157 109 C-155.02019307 108.25896602 -155.02019307 108.25896602 -153 107 C-152.33331299 106.6191626 -151.66662598 106.2383252 -150.97973633 105.84594727 C-148.58865672 104.42141069 -146.19875579 102.99510836 -143.8125 101.5625 C-142.47554077 100.76005859 -142.47554077 100.76005859 -141.11157227 99.94140625 C-134.06629654 95.68954694 -127.14577485 91.27011559 -120.2578125 86.76953125 C-115.80502272 83.86253394 -111.31253325 81.0206471 -106.8125 78.1875 C-98.85733454 73.17759885 -90.92404453 68.13420803 -82.99707031 63.07983398 C-77.53888015 59.60359004 -72.06133326 56.16149603 -66.5625 52.75 C-60.89304339 49.23090409 -55.33651866 45.56991904 -49.80761719 41.8347168 C-43.98022004 37.92697805 -38.00220616 34.27950247 -31.98876953 30.66625977 C-30.57843833 29.81631569 -29.17245584 28.95909256 -27.77197266 28.09301758 C-26.37607887 27.23197921 -24.96250322 26.39960441 -23.54296875 25.578125 C-21.20852877 23.19049525 -21.30164418 20.95656884 -21 17.6875 C-20.3208272 12.46309385 -19.73872233 8.94081543 -16 5 C-10.65351938 1.31607152 -6.52707253 -0.51802163 0 0 Z " fill="#1C3D72" transform="translate(513,168)"/>
</g>
<g id="vantix-text">
<!-- VANTIX BIO text paths -->
<path d="M0 0 C14.19 0 28.38 0 43 0 C49.0625 10.8125 49.0625 10.8125 50.92602539 14.14770508 C54.26504103 20.07781794 57.75596403 25.86424591 61.47460938 31.56445312 C63.58480203 34.9337364 65.30489768 38.40638308 67 42 C67.66 42 68.32 42 69 42 C69.60585938 40.89785156 70.21171875 39.79570312 70.8359375 38.66015625 C76.3295294 28.70067016 81.96338189 18.83999323 87.78662109 9.06958008 C89.55028912 6.06140828 91.26993126 3.02762029 93 0 C106.86 0 120.72 0 135 0 C133.34953732 4.12615671 131.59262691 7.61629028 129.375 11.4375 C128.66396323 12.66791139 127.95302897 13.89838202 127.2421875 15.12890625 C126.87577148 15.76070801 126.50935547 16.39250977 126.13183594 17.04345703 C124.24063211 20.3126778 122.37136768 23.59439859 120.5 26.875 C119.82301732 28.05995334 119.14594344 29.24485459 118.46875 30.4296875 C117.9840625 31.27789062 117.499375 32.12609375 117 33 C116.34 33 115.68 33 115 33 C114.74863281 33.84691406 114.49726562 34.69382812 114.23828125 35.56640625 C112.90456725 39.26462269 111.1646787 42.55839734 109.1875 45.9375 C108.82930176 46.55794189 108.47110352 47.17838379 108.10205078 47.81762695 C105.98672877 51.44096269 103.75052337 54.86901147 101.22265625 58.2109375 C98.96411454 61.51576851 97.18438654 65.10110754 95.33203125 68.64453125 C94 71 94 71 92 73 C92.30429659 77.02962458 94.85982112 80.33698513 96.9375 83.6875 C97.75056433 85.02309412 98.56304091 86.35904617 99.375 87.6953125 C99.80167969 88.39430664 100.22835937 89.09330078 100.66796875 89.81347656 C102.9449199 93.55108186 105.19779384 97.30247849 107.4375 101.0625 C108.07449829 102.11473755 108.07449829 102.11473755 108.72436523 103.18823242 C111.01268519 107.03813555 112.76064052 110.6588556 114 115 C114.66 115 115.32 115 116 115 C117.28719952 117.25259916 118.57439504 119.5052006 119.86157227 121.7578125 C120.95834467 123.67712336 122.05518769 125.59639387 123.15209961 127.515625 C125.59389893 131.78814401 128.03541053 136.06081892 130.47265625 140.3359375 C130.83101562 140.96419434 131.189375 141.59245117 131.55859375 142.23974609 C132.49907159 143.88878434 133.4390085 145.53813105 134.37890625 147.1875 C135.45857706 149.06066381 136.57083757 150.91542061 137.71484375 152.75 C139 155 139 155 139 157 C133.09187458 157.12362482 127.18450226 157.2143513 121.27539062 157.2746582 C119.2654916 157.29979816 117.25568395 157.33391529 115.24609375 157.37719727 C112.35654156 157.43787215 109.46819808 157.46621447 106.578125 157.48828125 C105.68007141 157.51408768 104.78201782 157.5398941 103.85675049 157.56648254 C97.59906027 157.56929403 97.59906027 157.56929403 94.49414062 154.61865234 C94.00107422 153.75449707 93.50800781 152.8903418 93 152 C92.51015625 151.21238281 92.0203125 150.42476562 91.515625 149.61328125 C91.09796875 148.85402344 90.6803125 148.09476563 90.25 147.3125 C89.82203125 146.54550781 89.3940625 145.77851563 88.953125 144.98828125 C88 143 88 143 88 141 C87.34 141 86.68 141 86 141 C85.64083496 140.33935547 85.28166992 139.67871094 84.91162109 138.99804688 C82.22346374 134.06065041 79.52222427 129.13139437 76.7890625 124.21875 C75.20703125 121.359375 75.20703125 121.359375 73.625 118.5 C73.07972656 117.52546875 72.53445313 116.5509375 71.97265625 115.546875 C71.45832031 114.61359375 70.94398438 113.6803125 70.4140625 112.71875 C69.9495166 111.88279297 69.4849707 111.04683594 69.00634766 110.18554688 C68 108 68 108 68 105 C67.34 105 66.68 105 66 105 C65.896875 105.886875 65.79375 106.77375 65.6875 107.6875 C64.94923785 111.24458125 63.92811707 112.93235335 62 116 C61.08336504 117.51407059 60.16960204 119.02988152 59.2578125 120.546875 C58.74863281 121.3925 58.23945312 122.238125 57.71484375 123.109375 C57.19019531 123.98078125 56.66554688 124.8521875 56.125 125.75 C55.60808594 126.6059375 55.09117187 127.461875 54.55859375 128.34375 C52.16239102 132.32736159 49.7994961 136.31950034 47.5546875 140.390625 C47.13243896 141.10734375 46.71019043 141.8240625 46.27514648 142.5625 C44.88512827 145.06456196 44.88512827 145.06456196 43.92211914 148.203125 C42.36495952 152.07476541 41.1762115 154.25703465 38 157 C30.8043923 159.04307449 22.93800819 158.11816759 15.5625 157.75 C13.47476185 157.68977211 11.38685791 157.63502526 9.29882812 157.5859375 C4.19511665 157.45402055 -0.90062582 157.24721933 -6 157 C-2.30363826 150.64661337 1.39570171 144.29695844 5.1875 138 C5.95322856 136.72792692 6.71884743 135.4557878 7.484375 134.18359375 C8.08862305 133.17981689 8.08862305 133.17981689 8.70507812 132.15576172 C10.10433235 129.82630946 11.4978819 127.49350689 12.890625 125.16015625 C17.98089114 116.63938613 23.11549224 108.15466224 28.40405273 99.75537109 C31.72247458 94.47529731 34.94528306 89.14153095 38.13354492 83.78198242 C39.70337467 81.14523572 41.29720231 78.55419653 43 76 C42.70420004 71.77428634 40.93944775 68.97655443 38.625 65.5 C32 55.46382979 32 55.46382979 32 53 C31.34 53 30.68 53 30 53 C29.70609375 52.43796875 29.4121875 51.8759375 29.109375 51.296875 C22.43638371 38.79460396 14.94200446 26.74243231 7.5 14.6875 C0 2.53125 0 2.53125 0 0 Z " fill="#4688BD" transform="translate(511,317)"/>
<path d="M0 0 C14.16331608 -2.0702759 14.16331608 -2.0702759 18.70605469 1.24511719 C22.20224684 5.01933655 24.58726473 9.49060281 27 14 C27.98809099 15.61152936 28.98531637 17.21758062 30 18.8125 C30.66 19.864375 31.32 20.91625 32 22 C32.66 22.33 33.32 22.66 34 23 C34.2789209 22.26628174 34.5578418 21.53256348 34.84521484 20.77661133 C37.95937384 13.28880365 42.75928791 5.25717952 49 0 C54.25915208 -2.00623855 59.61997862 -1.11882345 65 0 C63.34994418 5.26546475 60.05236105 9.31003326 56.8125 13.6875 C56.23040771 14.48824951 55.64831543 15.28899902 55.04858398 16.11401367 C52.57574273 19.51533359 50.0909861 22.90204492 47.515625 26.2265625 C46.87109375 27.07992187 46.2265625 27.93328125 45.5625 28.8125 C45.00691406 29.52019531 44.45132813 30.22789062 43.87890625 30.95703125 C42.76423529 32.99652235 42.76423529 32.99652235 43.515625 35.28125 C45.5063037 38.92733519 47.79667611 42.29381374 50.1875 45.6875 C50.67927734 46.39358398 51.17105469 47.09966797 51.67773438 47.82714844 C53.11424197 49.88777433 54.55691499 51.94397791 56 54 C56.71800781 55.03253906 57.43601562 56.06507813 58.17578125 57.12890625 C61.32197592 61.68539258 61.32197592 61.68539258 64.6875 66.078125 C66 68 66 68 66 71 C54.42780125 72.42022439 54.42780125 72.42022439 49 71 C45.10857337 67.60415303 43.21792334 63.60730709 41 59 C39.94757594 57.31364521 38.86716482 55.64418115 37.75 54 C37.27820313 53.28972656 36.80640625 52.57945312 36.3203125 51.84765625 C34.75352507 49.65508094 33.01781192 47.78498747 31 46 C30.78214844 46.65871094 30.56429687 47.31742188 30.33984375 47.99609375 C28.54022696 52.03080311 26.09709128 55.45723392 23.5625 59.0625 C23.07201172 59.76955078 22.58152344 60.47660156 22.07617188 61.20507812 C21.1324485 62.56144168 20.17836815 63.91067494 19.21264648 65.25146484 C17.89889514 67.06996018 17.89889514 67.06996018 16.6953125 69.48046875 C13.74757858 72.12256205 10.10002262 71.41156782 6.3125 71.25 C5.51521484 71.23195313 4.71792969 71.21390625 3.89648438 71.1953125 C1.93047551 71.14822247 -0.03491494 71.07647899 -2 71 C1.80171193 64.83165946 5.77339978 58.82050316 10 52.9375 C10.4230542 52.34646484 10.8461084 51.75542969 11.28198242 51.14648438 C13.23948519 48.41946494 15.21563079 45.71261817 17.23046875 43.02734375 C18.19919922 41.71443359 18.19919922 41.71443359 19.1875 40.375 C20.04408203 39.24191406 20.04408203 39.24191406 20.91796875 38.0859375 C22.1827157 36.09605201 22.1827157 36.09605201 21.84765625 34.015625 C18.05278599 24.9918782 11.13626459 16.92772163 5.35644531 9.10693359 C4.80827148 8.36008301 4.26009766 7.61323242 3.6953125 6.84375 C3.20047363 6.17537109 2.70563477 5.50699219 2.19580078 4.81835938 C1 3 1 3 0 0 Z " fill="#193156" transform="translate(536,669)"/>
</g>
</svg>
